#!OML:ASF H:\Dans Jumps\Project 1\Capture day 1\Session 1\subject.ASF
:FULLY-SPECIFIED
:DEGREES
240
root 0.63102 16.9803 -14.6054 8.28529 -0.448497 -1.78236
lowerback 3.54459 -0.61584 -0.101925
upperback 4.11543 -0.855861 2.13394
thorax 2.2764 -0.464185 2.26342
lowerneck -15.648 0.537378 -2.0081
upperneck 16.4912 1.24191 -0.140211
head 7.65198 0.44934 0.420799
rclavicle 0 -1.66979e-014
rhumerus -33.6858 -17.0517 -74.3524
rradius 23.9468
rwrist 31.7949
rhand -19.1224 -26.4674
rfingers 7.12502
rthumb 7.18697 -56.3254
lclavicle 0 -1.66979e-014
lhumerus -29.9369 1.09521 85.5237
lradius 16.9136
lwrist 7.35056
lhand -27.1119 -5.81692
lfingers 7.12502
lthumb -0.528164 24.1622
rfemur -26.6146 -3.88665 21.3224
rtibia 39.4404
rfoot -19.9044 -5.276
rtoes 7.31231
lfemur -26.7464 11.5432 -20.3487
ltibia 38.5842
lfoot -18.7637 3.49113
ltoes -2.1605
241
root 0.629955 16.9428 -14.6309 8.32952 -0.423547 -1.87355
lowerback 3.80159 -0.612546 -0.0322467
upperback 4.21479 -0.849341 2.16458
thorax 2.2346 -0.459959 2.25844
lowerneck -15.687 0.539398 -2.00984
upperneck 16.4234 1.2474 -0.151131
head 7.63646 0.45139 0.417978
rclavicle 1.00386e-014 -6.75868e-015
rhumerus -33.9872 -16.9875 -74.2122
rradius 23.9857
rwrist 31.7492
rhand -19.0863 -26.4787
rfingers 7.12502
rthumb 7.22182 -56.3355
lclavicle 1.00386e-014 -6.75868e-015
lhumerus -30.2221 1.05851 85.4718
lradius 16.9191
lwrist 7.50068
lhand -27.1844 -5.88781
lfingers 7.12502
lthumb -0.598149 24.0911
rfemur -27.1947 -3.9864 21.4558
rtibia 40.2508
rfoot -20.1798 -5.2851
rtoes 7.12632
lfemur -27.3844 11.6209 -20.2937
ltibia 39.4909
lfoot -19.0839 3.59477
ltoes -2.47577
242
root 0.628893 16.9046 -14.6564 8.38414 -0.409201 -1.94793
lowerback 4.05333 -0.605363 0.018587
upperback 4.31118 -0.837618 2.18906
thorax 2.1928 -0.453509 2.25754
lowerneck -15.7248 0.541096 -2.00921
upperneck 16.3513 1.25147 -0.160331
head 7.61934 0.453126 0.415156
rclavicle 4.07509e-015 -3.97569e-016
rhumerus -34.2978 -16.9337 -74.0638
rradius 24.0204
rwrist 31.7171
rhand -19.0503 -26.4807
rfingers 7.12502
rthumb 7.25656 -56.3363
lclavicle 4.07509e-015 -3.97569e-016
lhumerus -30.5088 1.03119 85.4159
lradius 16.9144
lwrist 7.64399
lhand -27.2002 -5.80467
lfingers 7.12502
lthumb -0.613458 24.1742
rfemur -27.7942 -4.0811 21.5715
rtibia 41.072
rfoot -20.4567 -5.29437
rtoes 6.94938
lfemur -28.0283 11.6889 -20.2589
ltibia 40.392
lfoot -19.4001 3.71607
ltoes -2.78227
243
root 0.627731 16.8658 -14.6819 8.45224 -0.40424 -2.00396
lowerback 4.29684 -0.594281 0.0493059
upperback 4.40545 -0.820904 2.20607
thorax 2.15352 -0.444977 2.26001
lowerneck -15.7551 0.540798 -2.00893
upperneck 16.2616 1.25116 -0.16255
head 7.59504 0.453637 0.414097
rclavicle -9.14409e-015 1.66979e-014
rhumerus -34.613 -16.9012 -73.9075
rradius 24.0491
rwrist 31.7007
rhand -19.0118 -26.4789
rfingers 7.12502
rthumb 7.29372 -56.3332
lclavicle -9.14409e-015 1.66979e-014
lhumerus -30.7978 1.00337 85.358
lradius 16.9069
lwrist 7.78613
lhand -27.2112 -5.70696
lfingers 7.12502
lthumb -0.62409 24.2719
rfemur -28.4181 -4.17288 21.6691
rtibia 41.9063
rfoot -20.7365 -5.30475
rtoes 6.76884
lfemur -28.6838 11.7437 -20.2457
ltibia 41.289
lfoot -19.7087 3.85352
ltoes -3.07457
244
root 0.626297 16.8261 -14.7075 8.5353 -0.410765 -2.04101
lowerback 4.5337 -0.579122 0.0555391
upperback 4.49431 -0.799167 2.21618
thorax 2.11254 -0.434445 2.26887
lowerneck -15.7818 0.539696 -2.00699
upperneck 16.1603 1.24793 -0.158556
head 7.56634 0.453598 0.414426
rclavicle -2.11706e-014 2.3059e-014
rhumerus -34.9351 -16.8727 -73.7494
rradius 24.0733
rwrist 31.685
rhand -18.9812 -26.4773
rfingers 7.12502
rthumb 7.32326 -56.3306
lclavicle -2.11706e-014 2.3059e-014
lhumerus -31.0967 0.973946 85.2985
lradius 16.9022
lwrist 7.92417
lhand -27.219 -5.60355
lfingers 7.12502
lthumb -0.631644 24.3753
rfemur -29.0688 -4.25413 21.7479
rtibia 42.7557
rfoot -21.0195 -5.3202
rtoes 6.5933
lfemur -29.3538 11.7912 -20.2546
ltibia 42.1838
lfoot -20.012 4.00034
ltoes -3.34684
245
root 0.624528 16.7855 -14.733 8.63049 -0.425426 -2.06246
lowerback 4.76855 -0.560741 0.0396029
upperback 4.57738 -0.773603 2.22099
thorax 2.06686 -0.422462 2.28451
lowerneck -15.8056 0.535502 -2.00903
upperneck 16.047 1.23898 -0.142657
head 7.5331 0.451861 0.418627
rclavicle 2.48481e-015 6.36111e-015
rhumerus -35.2634 -16.8498 -73.5898
rradius 24.0963
rwrist 31.6631
rhand -18.9479 -26.4833
rfingers 7.12502
rthumb 7.35539 -56.3354
lclavicle 2.48481e-015 6.36111e-015
lhumerus -31.4092 0.929714 85.2423
lradius 16.9059
lwrist 8.0682
lhand -27.2202 -5.50167
lfingers 7.12502
lthumb -0.632775 24.4771
rfemur -29.7413 -4.32293 21.8119
rtibia 43.6187
rfoot -21.3058 -5.34767
rtoes 6.40501
lfemur -30.0379 11.8287 -20.281
ltibia 43.0781
lfoot -20.3075 4.15704
ltoes -3.60957
246
root 0.622617 16.7438 -14.7583 8.73327 -0.44814 -2.07353
lowerback 5.00354 -0.540163 0.00830325
upperback 4.6548 -0.745524 2.22215
thorax 2.01544 -0.409525 2.30484
lowerneck -15.8348 0.531982 -2.00826
upperneck 15.9295 1.2292 -0.120442
head 7.49939 0.450532 0.424353
rclavicle 9.24349e-015 -1.0138e-014
rhumerus -35.5997 -16.8237 -73.4302
rradius 24.1182
rwrist 31.6319
rhand -18.9071 -26.5061
rfingers 7.12502
rthumb 7.39487 -56.3569
lclavicle 9.24349e-015 -1.0138e-014
lhumerus -31.7381 0.868735 85.1934
lradius 16.9154
lwrist 8.21764
lhand -27.2223 -5.42958
lfingers 7.12502
lthumb -0.634751 24.5492
rfemur -30.4276 -4.38208 21.8651
rtibia 44.4927
rfoot -21.5963 -5.38039
rtoes 6.21786
lfemur -30.7303 11.8598 -20.3195
ltibia 43.9733
lfoot -20.5964 4.32511
ltoes -3.87656
247
root 0.620508 16.7009 -14.7833 8.84183 -0.478233 -2.08101
lowerback 5.23951 -0.516968 -0.0325331
upperback 4.72795 -0.714338 2.22216
thorax 1.95911 -0.395229 2.32916
lowerneck -15.8715 0.529645 -2.00261
upperneck 15.8103 1.21981 -0.0967874
head 7.46649 0.449808 0.429816
rclavicle 1.78906e-015 -2.14687e-014
rhumerus -35.9421 -16.8005 -73.2664
rradius 24.1382
rwrist 31.5971
rhand -18.8629 -26.5147
rfingers 7.12502
rthumb 7.43746 -56.364
lclavicle 1.78906e-015 -2.14687e-014
lhumerus -32.0871 0.778316 85.1592
lradius 16.9382
lwrist 8.38983
lhand -27.2218 -5.37855
lfingers 7.12502
lthumb -0.634276 24.6003
rfemur -31.1245 -4.42946 21.9153
rtibia 45.3732
rfoot -21.8866 -5.4233
rtoes 6.01716
lfemur -31.4299 11.8881 -20.3624
ltibia 44.8694
lfoot -20.881 4.49935
ltoes -4.12241
248
root 0.618259 16.6569 -14.8081 8.95427 -0.512589 -2.09149
lowerback 5.47703 -0.492889 -0.0755269
upperback 4.79854 -0.682206 2.22309
thorax 1.89936 -0.380502 2.35547
lowerneck -15.9146 0.529153 -1.99179
upperneck 15.6893 1.21247 -0.0762214
head 7.43417 0.45006 0.43366
rclavicle -1.78906e-014 1.74931e-014
rhumerus -36.2881 -16.792 -73.0918
rradius 24.1465
rwrist 31.5912
rhand -18.8364 -26.4881
rfingers 7.12502
rthumb 7.46303 -56.3364
lclavicle -1.78906e-014 1.74931e-014
lhumerus -32.4529 0.6743 85.1362
lradius 16.9701
lwrist 8.57161
lhand -27.2215 -5.35312
lfingers 7.12502
lthumb -0.634008 24.6257
rfemur -31.8267 -4.4668 21.9695
rtibia 46.2559
rfoot -22.1756 -5.47346
rtoes 5.8192
lfemur -32.1332 11.9105 -20.4016
ltibia 45.7662
lfoot -21.1606 4.68476
ltoes -4.36065
249
root 0.616018 16.612 -14.8325 9.06554 -0.549721 -2.10763
lowerback 5.72013 -0.46818 -0.116663
upperback 4.86849 -0.649339 2.22692
thorax 1.83593 -0.365383 2.38362
lowerneck -15.9585 0.531877 -1.97601
upperneck 15.5598 1.20972 -0.0633316
head 7.39925 0.452131 0.434639
rclavicle -7.15625e-015 -1.33186e-014
rhumerus -36.6425 -16.7767 -72.9131
rradius 24.158
rwrist 31.5884
rhand -18.8271 -26.4331
rfingers 7.12502
rthumb 7.472 -56.2811
lclavicle -7.15625e-015 -1.33186e-014
lhumerus -32.8376 0.548669 85.1332
lradius 17.0127
lwrist 8.78159
lhand -27.2223 -5.34637
lfingers 7.12502
lthumb -0.634823 24.6324
rfemur -32.5267 -4.49914 22.0303
rtibia 47.1367
rfoot -22.4612 -5.5323
rtoes 5.60281
lfemur -32.8327 11.9305 -20.4341
ltibia 46.6616
lfoot -21.4377 4.87663
ltoes -4.57728
250
root 0.613733 16.5661 -14.857 9.17708 -0.58609 -2.12793
lowerback 5.96924 -0.44358 -0.15703
upperback 4.93849 -0.616754 2.23356
thorax 1.76935 -0.350413 2.41415
lowerneck -16.0026 0.534317 -1.9614
upperneck 15.4203 1.20777 -0.055616
head 7.36113 0.454091 0.434157
rclavicle -2.08724e-015 -2.42517e-014
rhumerus -37.0007 -16.76 -72.7296
rradius 24.1682
rwrist 31.589
rhand -18.8302 -26.34
rfingers 7.12502
rthumb 7.46908 -56.1881
lclavicle -2.08724e-015 -2.42517e-014
lhumerus -33.232 0.407592 85.1491
lradius 17.0557
lwrist 9.01799
lhand -27.2168 -5.3394
lfingers 7.12502
lthumb -0.62952 24.6394
rfemur -33.2272 -4.52555 22.097
rtibia 48.014
rfoot -22.7387 -5.60751
rtoes 5.35357
lfemur -33.5304 11.9427 -20.4605
ltibia 47.5546
lfoot -21.7113 5.07684
ltoes -4.78526
